<mxfile modified="2020-09-03T11:20:37.847Z" host="app.diagrams.net" agent="5.0 (Macintosh; Intel Mac OS X 10_16_0) AppleWebKit/537.36 (KHTML, like Gecko) Chrome/85.0.4183.83 Safari/537.36" etag="UYiFDklTPagkvIsuQiKW" version="13.6.6" type="github">
  <diagram id="Ht1M8jgEwFfnCIfOTk4-" name="Page-1">
    <mxGraphModel dx="815" dy="423" grid="1" gridSize="10" guides="1" tooltips="1" connect="1" arrows="1" fold="1" page="1" pageScale="1" pageWidth="1169" pageHeight="827" math="0" shadow="0">
      <root>
        <mxCell id="0" />
        <mxCell id="1" parent="0" />
        <mxCell id="-QjtrjUzRDEMRZ5MF8oH-47" value="Build Agent PRO for Azure DevOps" style="text;html=1;resizable=0;points=[];autosize=1;align=left;verticalAlign=top;spacingTop=-4;fontSize=30;fontStyle=1" parent="1" vertex="1">
          <mxGeometry x="56.5" y="50" width="520" height="40" as="geometry" />
        </mxCell>
        <mxCell id="SCVMTBWpLvtzJIhz15lM-1" value="" style="line;strokeWidth=2;html=1;fontSize=14;" parent="1" vertex="1">
          <mxGeometry x="55" y="104.5" width="1060" height="10" as="geometry" />
        </mxCell>
        <mxCell id="6OLwDovOC53qYYyb9LZN-1" value="&lt;b&gt;&lt;font style=&quot;font-size: 15px&quot;&gt;Components&lt;/font&gt;&lt;/b&gt;" style="text;html=1;align=left;verticalAlign=middle;resizable=0;points=[];autosize=1;" parent="1" vertex="1">
          <mxGeometry x="56.5" y="130" width="110" height="20" as="geometry" />
        </mxCell>
        <mxCell id="6OLwDovOC53qYYyb9LZN-3" value="&lt;ul&gt;&lt;li&gt;Linux Virtual Machine Scale Set&lt;/li&gt;&lt;li&gt;Autoscaler based on Azure DevOps&lt;/li&gt;&lt;li&gt;Docker&lt;/li&gt;&lt;li&gt;Containerized Build Pipelines&lt;/li&gt;&lt;/ul&gt;" style="text;html=1;align=left;verticalAlign=middle;resizable=0;points=[];autosize=1;" parent="1" vertex="1">
          <mxGeometry x="55" y="140" width="250" height="90" as="geometry" />
        </mxCell>
        <mxCell id="6OLwDovOC53qYYyb9LZN-7" value="" style="aspect=fixed;html=1;points=[];align=center;image;fontSize=12;image=img/lib/mscae/Azure_DevOps.svg;" parent="1" vertex="1">
          <mxGeometry x="570" y="53.629999999999995" width="32.75" height="32.75" as="geometry" />
        </mxCell>
        <mxCell id="6OLwDovOC53qYYyb9LZN-11" value="" style="shape=curlyBracket;whiteSpace=wrap;html=1;rounded=1;" parent="1" vertex="1">
          <mxGeometry x="570" y="130" width="20" height="130" as="geometry" />
        </mxCell>
        <mxCell id="6OLwDovOC53qYYyb9LZN-13" value="" style="aspect=fixed;html=1;points=[];align=center;image;fontSize=12;image=img/lib/mscae/Docker.svg;" parent="1" vertex="1">
          <mxGeometry x="590" y="140" width="50" height="41" as="geometry" />
        </mxCell>
        <mxCell id="6OLwDovOC53qYYyb9LZN-14" value="" style="aspect=fixed;html=1;points=[];align=center;image;fontSize=12;image=img/lib/mscae/Azure_DevOps.svg;" parent="1" vertex="1">
          <mxGeometry x="592.25" y="199.5" width="45.5" height="45.5" as="geometry" />
        </mxCell>
        <mxCell id="6OLwDovOC53qYYyb9LZN-16" value="" style="endArrow=classic;html=1;" parent="1" edge="1">
          <mxGeometry width="50" height="50" relative="1" as="geometry">
            <mxPoint x="640" y="190" as="sourcePoint" />
            <mxPoint x="710" y="190" as="targetPoint" />
          </mxGeometry>
        </mxCell>
        <mxCell id="6OLwDovOC53qYYyb9LZN-21" value="&lt;span style=&quot;font-size: 7px&quot;&gt;Linux VM Scale Set&lt;/span&gt;" style="text;html=1;strokeColor=none;fillColor=none;align=center;verticalAlign=middle;whiteSpace=wrap;rounded=0;" parent="1" vertex="1">
          <mxGeometry x="511.25" y="225" width="67.5" height="20" as="geometry" />
        </mxCell>
        <mxCell id="6OLwDovOC53qYYyb9LZN-22" value="&lt;div&gt;&lt;span style=&quot;font-size: 7px&quot;&gt;Azure DevOps Agent&lt;/span&gt;&lt;/div&gt;" style="text;html=1;strokeColor=none;fillColor=none;align=center;verticalAlign=middle;whiteSpace=wrap;rounded=0;" parent="1" vertex="1">
          <mxGeometry x="580" y="235.5" width="70" height="20" as="geometry" />
        </mxCell>
        <mxCell id="6OLwDovOC53qYYyb9LZN-23" value="&lt;font style=&quot;font-size: 13px&quot;&gt;Easy to use solution for&amp;nbsp;deploying an autoscalling Linux based Azure DevOps Agent with containerized Pipeline capabilities&lt;/font&gt;" style="text;html=1;strokeColor=none;fillColor=none;align=left;verticalAlign=middle;whiteSpace=wrap;rounded=0;" parent="1" vertex="1">
          <mxGeometry x="56.5" y="84.5" width="843.5" height="20" as="geometry" />
        </mxCell>
        <mxCell id="_Em9k9irQrkVj8QmLIKJ-1" value="" style="aspect=fixed;html=1;points=[];align=center;image;fontSize=12;image=img/lib/mscae/VM_Scale_Set.svg;" parent="1" vertex="1">
          <mxGeometry x="520" y="170" width="50" height="50" as="geometry" />
        </mxCell>
        <mxCell id="DmPy1XDaYtuW-2fn4pK0-1" value="&lt;b&gt;&lt;font style=&quot;font-size: 15px&quot;&gt;Useful Links / Information&lt;br&gt;&lt;/font&gt;&lt;/b&gt;" style="text;html=1;align=left;verticalAlign=middle;resizable=0;points=[];autosize=1;" parent="1" vertex="1">
          <mxGeometry x="58" y="235.5" width="200" height="20" as="geometry" />
        </mxCell>
        <mxCell id="DmPy1XDaYtuW-2fn4pK0-2" value="&lt;ul&gt;&lt;li&gt;&lt;a href=&quot;https://docs.microsoft.com/en-us/azure/devops/pipelines/agents/scale-set-agents?view=azure-devops#create-a-scale-set-with-custom-image-software-or-disk-size&quot;&gt;https://docs.microsoft.com/en-us/azure/devops/pipelines/agents/scale-set-agents?view=azure-devops#create-a-scale-set-with-custom-image-software-or-disk-size&lt;/a&gt;&lt;br&gt;&lt;/li&gt;&lt;li&gt;&lt;a href=&quot;https://docs.microsoft.com/en-us/azure/templates/microsoft.compute/virtualmachinescalesets&quot;&gt;https://docs.microsoft.com/en-us/azure/templates/microsoft.compute/virtualmachinescalesets&lt;/a&gt;&lt;br&gt;&lt;/li&gt;&lt;/ul&gt;" style="text;html=1;align=left;verticalAlign=middle;resizable=0;points=[];autosize=1;" parent="1" vertex="1">
          <mxGeometry x="58" y="245.5" width="920" height="60" as="geometry" />
        </mxCell>
        <mxCell id="yvjiYJEWqWmrDW1QPKK0-2" value="" style="aspect=fixed;html=1;points=[];align=center;image;fontSize=12;image=img/lib/mscae/Azure_Pipelines	.svg;" vertex="1" parent="1">
          <mxGeometry x="720" y="160" width="60" height="60" as="geometry" />
        </mxCell>
      </root>
    </mxGraphModel>
  </diagram>
</mxfile>
